<?xml version="1.0" standalone="no"?>
<!DOCTYPE svg PUBLIC "-//W3C//DTD SVG 20010904//EN"
 "http://www.w3.org/TR/2001/REC-SVG-20010904/DTD/svg10.dtd">
<svg version="1.0" xmlns="http://www.w3.org/2000/svg"
 width="512.000000pt" height="512.000000pt" viewBox="0 0 512.000000 512.000000"
 preserveAspectRatio="xMidYMid meet">

<g transform="translate(0.000000,512.000000) scale(0.100000,-0.100000)"
fill="#000000" stroke="none">
<path d="M2414 4562 c-34 -22 -62 -56 -157 -194 l-67 -96 -132 -4 c-116 -3
-138 -6 -168 -25 -116 -72 -102 -250 23 -298 36 -13 75 -16 233 -13 189 3 191
3 226 30 19 15 57 59 83 97 27 39 52 71 55 71 4 0 35 -33 70 -72 111 -128 93
-122 374 -126 260 -4 294 1 347 45 88 75 72 215 -31 270 -41 22 -54 23 -234
23 l-191 0 -117 135 c-65 74 -129 142 -144 152 -40 26 -132 29 -170 5z"/>
<path d="M1159 4396 c-91 -32 -165 -101 -205 -191 -52 -117 -28 -272 57 -368
46 -53 140 -104 209 -113 l47 -6 103 -180 c85 -149 100 -182 89 -192 -8 -7
-51 -45 -97 -85 -259 -230 -454 -562 -537 -916 -42 -176 -47 -268 -43 -785 4
-476 4 -486 27 -550 61 -175 190 -324 342 -399 166 -81 66 -75 1344 -79 1161
-3 1269 -1 1372 34 184 62 320 180 403 349 72 146 72 140 67 743 -3 510 -5
542 -26 637 -53 240 -164 495 -299 685 -37 52 -126 154 -198 227 l-132 132
108 188 107 188 63 12 c109 22 196 88 248 188 23 44 26 62 27 150 0 91 -3 105
-30 159 -33 66 -99 129 -165 159 -69 31 -181 34 -252 7 -78 -29 -150 -96 -189
-175 -26 -54 -31 -74 -31 -141 0 -55 6 -95 19 -130 l20 -50 -103 -180 c-77
-133 -108 -179 -121 -178 -10 1 -67 23 -128 49 -236 100 -438 140 -700 139
-265 -2 -496 -50 -714 -150 -41 -19 -78 -31 -82 -27 -4 5 -50 84 -103 176
l-96 168 20 59 c63 187 -35 390 -214 445 -60 18 -158 19 -207 1z m1588 -1021
c271 -38 490 -131 702 -296 223 -174 388 -406 479 -674 71 -208 85 -360 80
-872 l-3 -388 -31 -65 c-53 -111 -140 -179 -256 -200 -36 -7 -457 -10 -1194
-8 l-1139 3 -62 29 c-82 37 -152 112 -182 191 -22 58 -22 63 -18 559 4 552 3
545 73 755 214 645 882 1061 1551 966z"/>
<path d="M1954 2500 c-49 -11 -91 -40 -114 -82 -20 -35 -21 -50 -18 -182 3
-127 5 -148 24 -172 40 -54 70 -69 139 -69 71 0 103 17 143 75 20 30 22 44 22
173 0 123 -2 144 -21 177 -33 59 -109 94 -175 80z"/>
<path d="M3101 2499 c-39 -8 -76 -34 -105 -73 -18 -24 -21 -45 -24 -166 -4
-158 5 -192 66 -238 30 -23 45 -27 98 -27 70 0 102 17 142 75 20 30 22 44 22
173 0 125 -2 143 -22 178 -12 22 -32 46 -44 54 -33 21 -94 32 -133 24z"/>
<path d="M2155 1476 c-42 -18 -93 -79 -101 -121 -14 -75 23 -156 86 -187 32
-16 73 -18 418 -18 425 0 428 0 477 65 62 81 36 204 -55 252 -43 23 -46 23
-419 23 -288 -1 -383 -4 -406 -14z"/>
</g>
</svg>
