<?xml version="1.0" standalone="no"?>
<!DOCTYPE svg PUBLIC "-//W3C//DTD SVG 20010904//EN"
 "http://www.w3.org/TR/2001/REC-SVG-20010904/DTD/svg10.dtd">
<svg version="1.0" xmlns="http://www.w3.org/2000/svg"
 width="16.000000pt" height="16.000000pt" viewBox="0 0 16.000000 16.000000"
 preserveAspectRatio="xMidYMid meet">

<g transform="translate(0.000000,16.000000) scale(0.100000,-0.100000)"
fill="#000000" stroke="none">
<path d="M0 116 c0 -34 4 -46 17 -49 17 -4 17 -5 1 -6 -13 -1 -18 -10 -18 -31
l0 -30 80 0 80 0 0 80 c0 85 -9 97 -37 53 -9 -16 -19 -30 -21 -33 -2 -3 -12 6
-23 20 -11 15 -17 18 -13 8 4 -12 1 -18 -9 -18 -20 0 -31 16 -17 25 18 11 10
25 -15 25 -23 0 -25 -4 -25 -44z m60 -58 c0 -18 -2 -20 -9 -8 -6 8 -7 18 -5
22 9 14 14 9 14 -14z m64 -13 c-7 -18 -32 -27 -39 -14 -4 5 4 13 17 18 13 6
17 10 11 10 -7 1 -13 6 -13 12 0 8 4 8 14 -1 8 -6 12 -18 10 -25z"/>
</g>
</svg>
