<?xml version="1.0" standalone="no"?>
<!DOCTYPE svg PUBLIC "-//W3C//DTD SVG 20010904//EN"
 "http://www.w3.org/TR/2001/REC-SVG-20010904/DTD/svg10.dtd">
<svg version="1.0" xmlns="http://www.w3.org/2000/svg"
 width="360.000000pt" height="360.000000pt" viewBox="0 0 360.000000 360.000000"
 preserveAspectRatio="xMidYMid meet">

<g transform="translate(0.000000,360.000000) scale(0.100000,-0.100000)"
fill="#000000" stroke="none">
<path d="M1725 2749 c-329 -55 -504 -410 -347 -703 35 -65 123 -153 188 -188
103 -56 242 -73 351 -44 184 49 324 204 354 392 23 141 -31 305 -133 408 -65
65 -178 122 -268 136 -73 11 -75 11 -145 -1z"/>
<path d="M1400 1700 c-238 -123 -410 -342 -487 -620 -42 -153 -25 -213 67
-231 59 -11 1581 -11 1640 0 92 18 109 78 67 231 -80 289 -264 516 -514 634
l-62 29 -60 -27 c-160 -71 -344 -72 -498 -1 -31 14 -60 25 -67 25 -6 -1 -45
-18 -86 -40z"/>
</g>
</svg>
